<svg xmlns="http://www.w3.org/2000/svg" xmlns:xlink="http://www.w3.org/1999/xlink" width="120" zoomAndPan="magnify" viewBox="0 0 90 30.000001" height="40" preserveAspectRatio="xMidYMid meet" version="1.0"><defs><g/><clipPath id="e1a99d7b53"><path d="M 6 1.066406 L 32.8125 1.066406 L 32.8125 27.921875 L 6 27.921875 Z M 6 1.066406 " clip-rule="nonzero"/></clipPath></defs><g clip-path="url(#e1a99d7b53)"><path fill="#161719" d="M 19.421875 1.054688 C 20.023438 1.054688 20.625 1.09375 21.21875 1.175781 C 21.804688 1.261719 22.382812 1.386719 22.953125 1.550781 C 23.511719 1.710938 24.058594 1.90625 24.59375 2.136719 C 25.121094 2.355469 25.636719 2.605469 26.132812 2.890625 C 26.625 3.183594 27.09375 3.507812 27.542969 3.863281 C 28 4.207031 28.429688 4.582031 28.824219 4.996094 C 29.226562 5.402344 29.605469 5.828125 29.957031 6.28125 C 30.304688 6.734375 30.625 7.210938 30.910156 7.707031 C 31.199219 8.207031 31.449219 8.726562 31.664062 9.257812 C 31.898438 9.796875 32.097656 10.351562 32.261719 10.914062 C 32.417969 11.488281 32.539062 12.070312 32.617188 12.664062 C 32.773438 13.871094 32.773438 15.078125 32.617188 16.289062 C 32.539062 16.878906 32.417969 17.460938 32.261719 18.035156 C 32.105469 18.597656 31.910156 19.152344 31.683594 19.691406 C 31.46875 20.226562 31.21875 20.742188 30.929688 21.242188 C 30.640625 21.738281 30.324219 22.214844 29.976562 22.671875 C 29.625 23.121094 29.246094 23.546875 28.84375 23.953125 C 28.445312 24.363281 28.015625 24.742188 27.5625 25.085938 C 27.109375 25.4375 26.636719 25.757812 26.148438 26.050781 C 25.652344 26.335938 25.136719 26.585938 24.605469 26.804688 C 24.074219 27.035156 23.527344 27.230469 22.96875 27.390625 C 22.398438 27.554688 21.820312 27.683594 21.234375 27.769531 C 20.039062 27.929688 18.84375 27.929688 17.648438 27.769531 C 17.058594 27.683594 16.484375 27.558594 15.914062 27.390625 C 15.355469 27.230469 14.808594 27.035156 14.273438 26.804688 C 13.746094 26.585938 13.230469 26.335938 12.734375 26.050781 C 12.246094 25.757812 11.773438 25.4375 11.320312 25.085938 C 10.867188 24.742188 10.4375 24.363281 10.039062 23.953125 C 9.636719 23.546875 9.257812 23.121094 8.90625 22.671875 C 8.558594 22.214844 8.238281 21.738281 7.953125 21.242188 C 7.664062 20.742188 7.414062 20.226562 7.199219 19.691406 C 6.957031 19.152344 6.753906 18.601562 6.582031 18.035156 C 6.425781 17.460938 6.304688 16.878906 6.226562 16.289062 C 6.070312 15.078125 6.070312 13.871094 6.226562 12.664062 C 6.304688 12.070312 6.425781 11.488281 6.582031 10.914062 C 6.742188 10.351562 6.933594 9.800781 7.160156 9.257812 C 7.375 8.726562 7.628906 8.207031 7.914062 7.707031 C 8.203125 7.210938 8.519531 6.734375 8.867188 6.28125 C 9.21875 5.828125 9.597656 5.402344 10 4.996094 C 10.398438 4.582031 10.824219 4.207031 11.285156 3.863281 C 11.734375 3.507812 12.203125 3.183594 12.695312 2.886719 C 13.195312 2.605469 13.707031 2.351562 14.238281 2.132812 C 14.769531 1.902344 15.316406 1.707031 15.875 1.546875 C 16.445312 1.382812 17.023438 1.253906 17.609375 1.171875 C 18.210938 1.09375 18.816406 1.054688 19.421875 1.054688 Z M 21.070312 2.308594 C 19.972656 2.164062 18.878906 2.164062 17.78125 2.308594 C 17.246094 2.382812 16.71875 2.492188 16.195312 2.644531 C 15.679688 2.785156 15.175781 2.960938 14.6875 3.171875 C 14.203125 3.386719 13.734375 3.628906 13.28125 3.902344 C 12.832031 4.167969 12.398438 4.457031 11.984375 4.777344 C 11.574219 5.089844 11.1875 5.425781 10.820312 5.789062 C 10.453125 6.164062 10.105469 6.5625 9.78125 6.976562 C 9.464844 7.394531 9.175781 7.828125 8.914062 8.28125 C 8.652344 8.738281 8.417969 9.210938 8.210938 9.695312 C 8.003906 10.1875 7.828125 10.691406 7.683594 11.203125 C 7.535156 11.726562 7.429688 12.257812 7.363281 12.792969 C 7.207031 13.902344 7.207031 15.011719 7.363281 16.117188 C 7.425781 16.65625 7.535156 17.1875 7.683594 17.707031 C 7.828125 18.222656 8.003906 18.726562 8.210938 19.21875 C 8.417969 19.703125 8.652344 20.171875 8.914062 20.628906 C 9.175781 21.082031 9.464844 21.519531 9.78125 21.9375 C 10.101562 22.367188 10.449219 22.773438 10.820312 23.160156 C 11.183594 23.53125 11.574219 23.878906 11.984375 24.199219 C 12.398438 24.519531 12.832031 24.808594 13.28125 25.074219 C 13.734375 25.339844 14.203125 25.578125 14.6875 25.785156 C 15.175781 25.996094 15.679688 26.175781 16.195312 26.3125 C 17.25 26.613281 18.324219 26.761719 19.421875 26.75 C 19.972656 26.753906 20.523438 26.71875 21.070312 26.644531 C 21.605469 26.566406 22.132812 26.457031 22.65625 26.308594 C 23.171875 26.167969 23.675781 25.992188 24.164062 25.777344 C 24.648438 25.570312 25.117188 25.332031 25.570312 25.066406 C 26.019531 24.800781 26.453125 24.511719 26.867188 24.191406 C 27.273438 23.875 27.660156 23.53125 28.023438 23.160156 C 28.394531 22.789062 28.738281 22.394531 29.050781 21.976562 C 29.378906 21.5625 29.667969 21.125 29.929688 20.667969 C 30.191406 20.210938 30.425781 19.742188 30.632812 19.257812 C 30.839844 18.761719 31.015625 18.261719 31.160156 17.746094 C 31.304688 17.222656 31.410156 16.691406 31.480469 16.15625 C 31.636719 15.046875 31.636719 13.941406 31.480469 12.832031 C 31.410156 12.292969 31.304688 11.765625 31.160156 11.242188 C 31.015625 10.726562 30.839844 10.222656 30.632812 9.730469 C 30.425781 9.246094 30.191406 8.777344 29.929688 8.320312 C 29.667969 7.863281 29.375 7.425781 29.050781 7.011719 C 28.734375 6.582031 28.394531 6.175781 28.023438 5.789062 C 27.660156 5.417969 27.269531 5.070312 26.859375 4.75 C 26.445312 4.441406 26.011719 4.15625 25.5625 3.902344 C 25.109375 3.636719 24.640625 3.398438 24.15625 3.191406 C 23.667969 2.980469 23.164062 2.800781 22.648438 2.660156 C 22.125 2.511719 21.597656 2.402344 21.0625 2.324219 Z M 21.070312 2.308594 " fill-opacity="1" fill-rule="nonzero"/></g><g fill="#161719" fill-opacity="1"><g transform="translate(35.089391, 12.011203)"><g><path d="M 4.765625 0.140625 C 4.179688 0.140625 3.628906 0.03125 3.109375 -0.1875 C 2.597656 -0.40625 2.144531 -0.707031 1.75 -1.09375 C 1.351562 -1.476562 1.039062 -1.921875 0.8125 -2.421875 C 0.59375 -2.929688 0.484375 -3.46875 0.484375 -4.03125 C 0.484375 -4.59375 0.59375 -5.125 0.8125 -5.625 C 1.039062 -6.132812 1.351562 -6.578125 1.75 -6.953125 C 2.144531 -7.335938 2.597656 -7.640625 3.109375 -7.859375 C 3.628906 -8.078125 4.179688 -8.1875 4.765625 -8.1875 C 5.347656 -8.1875 5.894531 -8.078125 6.40625 -7.859375 C 6.925781 -7.640625 7.382812 -7.335938 7.78125 -6.953125 C 8.175781 -6.578125 8.484375 -6.132812 8.703125 -5.625 C 8.921875 -5.125 9.03125 -4.59375 9.03125 -4.03125 C 9.03125 -3.46875 8.921875 -2.929688 8.703125 -2.421875 C 8.484375 -1.921875 8.175781 -1.476562 7.78125 -1.09375 C 7.382812 -0.707031 6.925781 -0.40625 6.40625 -0.1875 C 5.894531 0.03125 5.347656 0.140625 4.765625 0.140625 Z M 4.765625 -1.4375 C 5.210938 -1.4375 5.625 -1.550781 6 -1.78125 C 6.382812 -2.019531 6.691406 -2.335938 6.921875 -2.734375 C 7.148438 -3.128906 7.265625 -3.5625 7.265625 -4.03125 C 7.265625 -4.5 7.148438 -4.925781 6.921875 -5.3125 C 6.691406 -5.707031 6.382812 -6.023438 6 -6.265625 C 5.625 -6.503906 5.210938 -6.625 4.765625 -6.625 C 4.316406 -6.625 3.898438 -6.503906 3.515625 -6.265625 C 3.140625 -6.023438 2.835938 -5.707031 2.609375 -5.3125 C 2.378906 -4.925781 2.265625 -4.5 2.265625 -4.03125 C 2.265625 -3.5625 2.378906 -3.128906 2.609375 -2.734375 C 2.835938 -2.335938 3.140625 -2.019531 3.515625 -1.78125 C 3.898438 -1.550781 4.316406 -1.4375 4.765625 -1.4375 Z M 4.765625 -1.4375 "/></g></g></g><g fill="#161719" fill-opacity="1"><g transform="translate(44.484741, 12.011203)"><g><path d="M 4.484375 -6.203125 C 5.023438 -6.203125 5.503906 -6.066406 5.921875 -5.796875 C 6.347656 -5.523438 6.679688 -5.148438 6.921875 -4.671875 C 7.160156 -4.203125 7.28125 -3.65625 7.28125 -3.03125 C 7.28125 -2.414062 7.160156 -1.867188 6.921875 -1.390625 C 6.679688 -0.910156 6.347656 -0.535156 5.921875 -0.265625 C 5.503906 0.00390625 5.023438 0.140625 4.484375 0.140625 C 4.066406 0.140625 3.6875 0.0507812 3.34375 -0.125 C 3 -0.300781 2.707031 -0.546875 2.46875 -0.859375 L 2.46875 0 L 0.75 0 L 0.75 -8.1875 L 2.46875 -8.1875 L 2.46875 -5.21875 C 2.707031 -5.53125 3 -5.769531 3.34375 -5.9375 C 3.6875 -6.113281 4.066406 -6.203125 4.484375 -6.203125 Z M 4 -1.296875 C 4.476562 -1.296875 4.863281 -1.457031 5.15625 -1.78125 C 5.457031 -2.113281 5.609375 -2.53125 5.609375 -3.03125 C 5.609375 -3.539062 5.457031 -3.957031 5.15625 -4.28125 C 4.863281 -4.601562 4.476562 -4.765625 4 -4.765625 C 3.582031 -4.765625 3.234375 -4.625 2.953125 -4.34375 C 2.671875 -4.0625 2.507812 -3.703125 2.46875 -3.265625 L 2.46875 -2.796875 C 2.507812 -2.359375 2.671875 -2 2.953125 -1.71875 C 3.234375 -1.4375 3.582031 -1.296875 4 -1.296875 Z M 4 -1.296875 "/></g></g></g><g fill="#161719" fill-opacity="1"><g transform="translate(52.099408, 12.011203)"><g><path d="M 3.734375 0.140625 C 3.273438 0.140625 2.847656 0.0546875 2.453125 -0.109375 C 2.054688 -0.273438 1.703125 -0.503906 1.390625 -0.796875 C 1.085938 -1.097656 0.847656 -1.4375 0.671875 -1.8125 C 0.492188 -2.195312 0.40625 -2.601562 0.40625 -3.03125 C 0.40625 -3.46875 0.492188 -3.875 0.671875 -4.25 C 0.847656 -4.632812 1.085938 -4.972656 1.390625 -5.265625 C 1.703125 -5.554688 2.054688 -5.785156 2.453125 -5.953125 C 2.847656 -6.117188 3.273438 -6.203125 3.734375 -6.203125 C 4.171875 -6.203125 4.585938 -6.117188 4.984375 -5.953125 C 5.390625 -5.785156 5.742188 -5.554688 6.046875 -5.265625 C 6.347656 -4.972656 6.582031 -4.632812 6.75 -4.25 C 6.925781 -3.875 7.015625 -3.46875 7.015625 -3.03125 C 7.015625 -2.601562 6.925781 -2.195312 6.75 -1.8125 C 6.582031 -1.4375 6.347656 -1.097656 6.046875 -0.796875 C 5.742188 -0.503906 5.390625 -0.273438 4.984375 -0.109375 C 4.585938 0.0546875 4.171875 0.140625 3.734375 0.140625 Z M 3.734375 -1.296875 C 4.035156 -1.296875 4.3125 -1.375 4.5625 -1.53125 C 4.8125 -1.695312 5.007812 -1.910156 5.15625 -2.171875 C 5.3125 -2.429688 5.390625 -2.71875 5.390625 -3.03125 C 5.390625 -3.34375 5.3125 -3.628906 5.15625 -3.890625 C 5.007812 -4.160156 4.8125 -4.375 4.5625 -4.53125 C 4.3125 -4.6875 4.035156 -4.765625 3.734375 -4.765625 C 3.421875 -4.765625 3.140625 -4.6875 2.890625 -4.53125 C 2.640625 -4.375 2.4375 -4.160156 2.28125 -3.890625 C 2.125 -3.628906 2.046875 -3.34375 2.046875 -3.03125 C 2.046875 -2.71875 2.125 -2.429688 2.28125 -2.171875 C 2.4375 -1.910156 2.640625 -1.695312 2.890625 -1.53125 C 3.140625 -1.375 3.421875 -1.296875 3.734375 -1.296875 Z M 3.734375 -1.296875 "/></g></g></g><g fill="#161719" fill-opacity="1"><g transform="translate(59.409483, 12.011203)"><g><path d="M 3.03125 0.140625 C 2.539062 0.140625 2.050781 0.0625 1.5625 -0.09375 C 1.082031 -0.257812 0.660156 -0.488281 0.296875 -0.78125 L 1.03125 -1.953125 C 1.300781 -1.765625 1.601562 -1.601562 1.9375 -1.46875 C 2.28125 -1.34375 2.65625 -1.28125 3.0625 -1.28125 C 3.289062 -1.28125 3.476562 -1.320312 3.625 -1.40625 C 3.769531 -1.488281 3.84375 -1.597656 3.84375 -1.734375 C 3.84375 -1.921875 3.742188 -2.054688 3.546875 -2.140625 C 3.347656 -2.234375 3.09375 -2.316406 2.78125 -2.390625 C 2.363281 -2.492188 1.988281 -2.609375 1.65625 -2.734375 C 1.320312 -2.867188 1.054688 -3.050781 0.859375 -3.28125 C 0.671875 -3.519531 0.570312 -3.835938 0.5625 -4.234375 C 0.5625 -4.617188 0.660156 -4.957031 0.859375 -5.25 C 1.054688 -5.550781 1.332031 -5.785156 1.6875 -5.953125 C 2.039062 -6.117188 2.457031 -6.203125 2.9375 -6.203125 C 3.375 -6.203125 3.796875 -6.132812 4.203125 -6 C 4.609375 -5.863281 4.984375 -5.679688 5.328125 -5.453125 L 4.625 -4.234375 C 4.351562 -4.398438 4.066406 -4.53125 3.765625 -4.625 C 3.460938 -4.71875 3.1875 -4.765625 2.9375 -4.765625 C 2.71875 -4.765625 2.539062 -4.734375 2.40625 -4.671875 C 2.28125 -4.609375 2.21875 -4.519531 2.21875 -4.40625 C 2.21875 -4.238281 2.289062 -4.113281 2.4375 -4.03125 C 2.59375 -3.957031 2.875 -3.867188 3.28125 -3.765625 C 3.539062 -3.691406 3.800781 -3.613281 4.0625 -3.53125 C 4.320312 -3.445312 4.554688 -3.332031 4.765625 -3.1875 C 4.984375 -3.050781 5.15625 -2.867188 5.28125 -2.640625 C 5.414062 -2.421875 5.484375 -2.144531 5.484375 -1.8125 C 5.484375 -1.21875 5.257812 -0.742188 4.8125 -0.390625 C 4.363281 -0.0351562 3.769531 0.140625 3.03125 0.140625 Z M 3.03125 0.140625 "/></g></g></g><g fill="#161719" fill-opacity="1"><g transform="translate(65.173175, 12.011203)"><g><path d="M 3.9375 -1.5 L 4.34375 -0.390625 C 4.175781 -0.234375 3.960938 -0.101562 3.703125 0 C 3.453125 0.09375 3.203125 0.140625 2.953125 0.140625 C 2.421875 0.140625 1.984375 -0.03125 1.640625 -0.375 C 1.304688 -0.71875 1.140625 -1.164062 1.140625 -1.71875 L 1.140625 -4.671875 L 0.3125 -4.671875 L 0.3125 -6.0625 L 1.140625 -6.0625 L 1.140625 -7.71875 L 2.78125 -7.71875 L 2.78125 -6.0625 L 4.09375 -6.0625 L 4.09375 -4.671875 L 2.78125 -4.671875 L 2.78125 -1.984375 C 2.78125 -1.785156 2.835938 -1.617188 2.953125 -1.484375 C 3.066406 -1.359375 3.203125 -1.296875 3.359375 -1.296875 C 3.609375 -1.296875 3.800781 -1.363281 3.9375 -1.5 Z M 3.9375 -1.5 "/></g></g></g><g fill="#161719" fill-opacity="1"><g transform="translate(69.718502, 12.011203)"><g><path d="M 4.25 -6.203125 C 4.6875 -6.203125 5.078125 -6.101562 5.421875 -5.90625 C 5.765625 -5.707031 6.03125 -5.429688 6.21875 -5.078125 C 6.40625 -4.722656 6.5 -4.316406 6.5 -3.859375 L 6.5 0 L 4.859375 0 L 4.859375 -3.5 C 4.859375 -3.875 4.75 -4.175781 4.53125 -4.40625 C 4.320312 -4.644531 4.046875 -4.765625 3.703125 -4.765625 C 3.347656 -4.765625 3.046875 -4.648438 2.796875 -4.421875 C 2.554688 -4.191406 2.4375 -3.914062 2.4375 -3.59375 L 2.4375 0 L 0.734375 0 L 0.734375 -8.1875 L 2.4375 -8.1875 L 2.4375 -5.328125 C 2.625 -5.585938 2.878906 -5.796875 3.203125 -5.953125 C 3.523438 -6.117188 3.875 -6.203125 4.25 -6.203125 Z M 4.25 -6.203125 "/></g></g></g><g fill="#161719" fill-opacity="1"><g transform="translate(76.794273, 12.011203)"><g><path d="M 3.453125 -6.203125 C 3.984375 -6.203125 4.445312 -6.09375 4.84375 -5.875 C 5.25 -5.664062 5.5625 -5.367188 5.78125 -4.984375 C 6.007812 -4.609375 6.125 -4.15625 6.125 -3.625 L 6.125 0 L 4.46875 0 L 4.46875 -0.609375 C 4.25 -0.367188 3.976562 -0.179688 3.65625 -0.046875 C 3.332031 0.078125 3.007812 0.140625 2.6875 0.140625 C 2.257812 0.140625 1.875 0.0625 1.53125 -0.09375 C 1.1875 -0.257812 0.910156 -0.488281 0.703125 -0.78125 C 0.503906 -1.070312 0.40625 -1.410156 0.40625 -1.796875 C 0.40625 -2.191406 0.515625 -2.539062 0.734375 -2.84375 C 0.960938 -3.15625 1.265625 -3.394531 1.640625 -3.5625 C 2.023438 -3.726562 2.453125 -3.8125 2.921875 -3.8125 C 3.429688 -3.8125 3.945312 -3.707031 4.46875 -3.5 L 4.46875 -3.625 C 4.46875 -3.945312 4.359375 -4.226562 4.140625 -4.46875 C 3.929688 -4.707031 3.578125 -4.828125 3.078125 -4.828125 C 2.796875 -4.828125 2.519531 -4.785156 2.25 -4.703125 C 1.988281 -4.617188 1.738281 -4.515625 1.5 -4.390625 L 0.921875 -5.53125 C 1.359375 -5.75 1.785156 -5.914062 2.203125 -6.03125 C 2.617188 -6.144531 3.035156 -6.203125 3.453125 -6.203125 Z M 3.078125 -1.046875 C 3.398438 -1.046875 3.695312 -1.117188 3.96875 -1.265625 C 4.25 -1.410156 4.414062 -1.625 4.46875 -1.90625 L 4.46875 -2.46875 C 4.269531 -2.539062 4.0625 -2.597656 3.84375 -2.640625 C 3.625 -2.679688 3.398438 -2.703125 3.171875 -2.703125 C 2.859375 -2.703125 2.59375 -2.617188 2.375 -2.453125 C 2.15625 -2.296875 2.046875 -2.09375 2.046875 -1.84375 C 2.046875 -1.601562 2.144531 -1.410156 2.34375 -1.265625 C 2.539062 -1.117188 2.785156 -1.046875 3.078125 -1.046875 Z M 3.078125 -1.046875 "/></g></g></g><g fill="#161719" fill-opacity="1"><g transform="translate(34.681125, 22.172493)"><g><path d="M 2.890625 0 L 2.890625 -6.5 L 0.375 -6.5 L 0.375 -8.046875 L 7.125 -8.046875 L 7.125 -6.5 L 4.625 -6.5 L 4.625 0 Z M 2.890625 0 "/></g></g></g><g fill="#161719" fill-opacity="1"><g transform="translate(42.049774, 22.172493)"><g><path d="M 2.46875 -4.9375 C 2.664062 -5.320312 2.941406 -5.628906 3.296875 -5.859375 C 3.660156 -6.085938 4.070312 -6.203125 4.53125 -6.203125 L 4.53125 -4.765625 C 3.90625 -4.765625 3.40625 -4.59375 3.03125 -4.25 C 2.65625 -3.914062 2.46875 -3.460938 2.46875 -2.890625 L 2.46875 0 L 0.75 0 L 0.75 -6.0625 L 2.46875 -6.0625 Z M 2.46875 -4.9375 "/></g></g></g><g fill="#161719" fill-opacity="1"><g transform="translate(46.700536, 22.172493)"><g><path d="M 3.453125 -6.203125 C 3.984375 -6.203125 4.445312 -6.09375 4.84375 -5.875 C 5.25 -5.664062 5.5625 -5.367188 5.78125 -4.984375 C 6.007812 -4.609375 6.125 -4.15625 6.125 -3.625 L 6.125 0 L 4.46875 0 L 4.46875 -0.609375 C 4.25 -0.367188 3.976562 -0.179688 3.65625 -0.046875 C 3.332031 0.078125 3.007812 0.140625 2.6875 0.140625 C 2.257812 0.140625 1.875 0.0625 1.53125 -0.09375 C 1.1875 -0.257812 0.910156 -0.488281 0.703125 -0.78125 C 0.503906 -1.070312 0.40625 -1.410156 0.40625 -1.796875 C 0.40625 -2.191406 0.515625 -2.539062 0.734375 -2.84375 C 0.960938 -3.15625 1.265625 -3.394531 1.640625 -3.5625 C 2.023438 -3.726562 2.453125 -3.8125 2.921875 -3.8125 C 3.429688 -3.8125 3.945312 -3.707031 4.46875 -3.5 L 4.46875 -3.625 C 4.46875 -3.945312 4.359375 -4.226562 4.140625 -4.46875 C 3.929688 -4.707031 3.578125 -4.828125 3.078125 -4.828125 C 2.796875 -4.828125 2.519531 -4.785156 2.25 -4.703125 C 1.988281 -4.617188 1.738281 -4.515625 1.5 -4.390625 L 0.921875 -5.53125 C 1.359375 -5.75 1.785156 -5.914062 2.203125 -6.03125 C 2.617188 -6.144531 3.035156 -6.203125 3.453125 -6.203125 Z M 3.078125 -1.046875 C 3.398438 -1.046875 3.695312 -1.117188 3.96875 -1.265625 C 4.25 -1.410156 4.414062 -1.625 4.46875 -1.90625 L 4.46875 -2.46875 C 4.269531 -2.539062 4.0625 -2.597656 3.84375 -2.640625 C 3.625 -2.679688 3.398438 -2.703125 3.171875 -2.703125 C 2.859375 -2.703125 2.59375 -2.617188 2.375 -2.453125 C 2.15625 -2.296875 2.046875 -2.09375 2.046875 -1.84375 C 2.046875 -1.601562 2.144531 -1.410156 2.34375 -1.265625 C 2.539062 -1.117188 2.785156 -1.046875 3.078125 -1.046875 Z M 3.078125 -1.046875 "/></g></g></g><g fill="#161719" fill-opacity="1"><g transform="translate(53.389716, 22.172493)"><g><path d="M 3.71875 0.140625 C 3.269531 0.140625 2.847656 0.0546875 2.453125 -0.109375 C 2.054688 -0.273438 1.703125 -0.503906 1.390625 -0.796875 C 1.085938 -1.097656 0.847656 -1.4375 0.671875 -1.8125 C 0.492188 -2.195312 0.40625 -2.601562 0.40625 -3.03125 C 0.40625 -3.46875 0.492188 -3.875 0.671875 -4.25 C 0.847656 -4.632812 1.085938 -4.972656 1.390625 -5.265625 C 1.703125 -5.554688 2.054688 -5.785156 2.453125 -5.953125 C 2.859375 -6.117188 3.285156 -6.203125 3.734375 -6.203125 C 4.222656 -6.203125 4.664062 -6.109375 5.0625 -5.921875 C 5.46875 -5.742188 5.816406 -5.492188 6.109375 -5.171875 L 4.96875 -4.203125 C 4.820312 -4.367188 4.632812 -4.503906 4.40625 -4.609375 C 4.175781 -4.710938 3.945312 -4.765625 3.71875 -4.765625 C 3.414062 -4.765625 3.140625 -4.6875 2.890625 -4.53125 C 2.640625 -4.375 2.441406 -4.164062 2.296875 -3.90625 C 2.148438 -3.644531 2.078125 -3.359375 2.078125 -3.046875 C 2.078125 -2.734375 2.148438 -2.441406 2.296875 -2.171875 C 2.441406 -1.910156 2.640625 -1.695312 2.890625 -1.53125 C 3.148438 -1.375 3.429688 -1.296875 3.734375 -1.296875 C 3.960938 -1.296875 4.191406 -1.347656 4.421875 -1.453125 C 4.648438 -1.566406 4.84375 -1.710938 5 -1.890625 L 6.140625 -0.921875 C 5.847656 -0.597656 5.5 -0.335938 5.09375 -0.140625 C 4.6875 0.046875 4.226562 0.140625 3.71875 0.140625 Z M 3.71875 0.140625 "/></g></g></g><g fill="#161719" fill-opacity="1"><g transform="translate(59.692304, 22.172493)"><g><path d="M 6.640625 -6.0625 L 4.296875 -3.375 L 6.625 0 L 4.65625 0 L 3.15625 -2.28125 L 2.421875 -1.484375 L 2.421875 0 L 0.71875 0 L 0.71875 -8.1875 L 2.421875 -8.1875 L 2.421875 -3.453125 L 4.671875 -6.0625 Z M 6.640625 -6.0625 "/></g></g></g><g fill="#161719" fill-opacity="1"><g transform="translate(66.264332, 22.172493)"><g><path d="M 1.609375 -6.890625 C 1.335938 -6.890625 1.113281 -6.976562 0.9375 -7.15625 C 0.757812 -7.34375 0.671875 -7.566406 0.671875 -7.828125 C 0.671875 -8.066406 0.757812 -8.28125 0.9375 -8.46875 C 1.113281 -8.65625 1.335938 -8.75 1.609375 -8.75 C 1.859375 -8.75 2.070312 -8.65625 2.25 -8.46875 C 2.425781 -8.28125 2.515625 -8.066406 2.515625 -7.828125 C 2.515625 -7.566406 2.425781 -7.34375 2.25 -7.15625 C 2.070312 -6.976562 1.859375 -6.890625 1.609375 -6.890625 Z M 0.734375 0 L 0.734375 -6.0625 L 2.453125 -6.0625 L 2.453125 0 Z M 0.734375 0 "/></g></g></g><g fill="#161719" fill-opacity="1"><g transform="translate(69.333571, 22.172493)"><g><path d="M 4.25 -6.203125 C 4.6875 -6.203125 5.078125 -6.101562 5.421875 -5.90625 C 5.765625 -5.707031 6.03125 -5.429688 6.21875 -5.078125 C 6.40625 -4.722656 6.5 -4.316406 6.5 -3.859375 L 6.5 0 L 4.859375 0 L 4.859375 -3.5 C 4.859375 -3.875 4.75 -4.175781 4.53125 -4.40625 C 4.320312 -4.644531 4.046875 -4.765625 3.703125 -4.765625 C 3.347656 -4.765625 3.046875 -4.648438 2.796875 -4.421875 C 2.554688 -4.191406 2.4375 -3.914062 2.4375 -3.59375 L 2.421875 -3.625 L 2.421875 0 L 0.71875 0 L 0.71875 -6.0625 L 2.421875 -6.0625 L 2.421875 -5.296875 C 2.609375 -5.566406 2.863281 -5.785156 3.1875 -5.953125 C 3.507812 -6.117188 3.863281 -6.203125 4.25 -6.203125 Z M 4.25 -6.203125 "/></g></g></g><g fill="#161719" fill-opacity="1"><g transform="translate(76.409342, 22.172493)"><g><path d="M 5.140625 -6.0625 L 6.859375 -6.0625 L 6.859375 -0.640625 C 6.859375 -0.128906 6.71875 0.328125 6.4375 0.734375 C 6.164062 1.140625 5.785156 1.453125 5.296875 1.671875 C 4.804688 1.898438 4.238281 2.015625 3.59375 2.015625 C 3.0625 2.015625 2.554688 1.9375 2.078125 1.78125 C 1.609375 1.632812 1.222656 1.441406 0.921875 1.203125 L 1.53125 0 C 1.726562 0.175781 1.988281 0.316406 2.3125 0.421875 C 2.632812 0.523438 2.972656 0.578125 3.328125 0.578125 C 3.878906 0.578125 4.316406 0.457031 4.640625 0.21875 C 4.972656 -0.0078125 5.140625 -0.320312 5.140625 -0.71875 L 5.140625 -1.390625 C 4.890625 -1.097656 4.59375 -0.867188 4.25 -0.703125 C 3.90625 -0.535156 3.53125 -0.453125 3.125 -0.453125 C 2.625 -0.453125 2.171875 -0.570312 1.765625 -0.8125 C 1.359375 -1.0625 1.035156 -1.398438 0.796875 -1.828125 C 0.566406 -2.265625 0.453125 -2.765625 0.453125 -3.328125 C 0.453125 -3.890625 0.566406 -4.382812 0.796875 -4.8125 C 1.035156 -5.25 1.359375 -5.585938 1.765625 -5.828125 C 2.171875 -6.078125 2.625 -6.203125 3.125 -6.203125 C 3.539062 -6.203125 3.925781 -6.113281 4.28125 -5.9375 C 4.644531 -5.757812 4.929688 -5.523438 5.140625 -5.234375 Z M 3.671875 -1.890625 C 4.097656 -1.890625 4.445312 -2.023438 4.71875 -2.296875 C 5 -2.566406 5.140625 -2.910156 5.140625 -3.328125 C 5.140625 -3.753906 5 -4.097656 4.71875 -4.359375 C 4.445312 -4.628906 4.097656 -4.765625 3.671875 -4.765625 C 3.242188 -4.765625 2.890625 -4.628906 2.609375 -4.359375 C 2.335938 -4.097656 2.203125 -3.753906 2.203125 -3.328125 C 2.203125 -2.910156 2.335938 -2.566406 2.609375 -2.296875 C 2.890625 -2.023438 3.242188 -1.890625 3.671875 -1.890625 Z M 3.671875 -1.890625 "/></g></g></g><g fill="#161719" fill-opacity="1"><g transform="translate(10.336866, 20.428379)"><g><path d="M 18.347656 -13.011719 L 18.347656 -10.773438 L 17.09375 -10.773438 L 17.09375 0 L 14.4375 0 L 11.507812 -2.050781 C 11.367188 -1.867188 11.207031 -1.6875 11.035156 -1.515625 C 10.023438 -0.503906 8.808594 0 7.386719 0 L 6.003906 0 C 4.582031 0 3.363281 -0.503906 2.355469 -1.515625 C 1.34375 -2.527344 0.835938 -3.753906 0.835938 -5.1875 L 0.835938 -9.101562 L 3.492188 -9.101562 L 3.492188 -4.980469 C 3.492188 -4.28125 3.742188 -3.652344 4.238281 -3.085938 C 4.730469 -2.519531 5.320312 -2.238281 6.003906 -2.238281 L 7.386719 -2.238281 C 8.082031 -2.238281 8.675781 -2.519531 9.164062 -3.085938 C 9.652344 -3.652344 9.894531 -4.28125 9.894531 -4.980469 L 9.894531 -6.613281 C 9.894531 -6.917969 9.792969 -7.210938 9.582031 -7.488281 C 9.375 -7.769531 9.113281 -7.910156 8.808594 -7.910156 L 8.597656 -7.910156 C 8.390625 -7.910156 8.207031 -7.796875 8.054688 -7.574219 C 7.902344 -7.351562 7.824219 -7.132812 7.824219 -6.925781 L 7.824219 -5.042969 L 5.167969 -5.042969 L 5.167969 -6.714844 C 5.167969 -7.664062 5.503906 -8.472656 6.171875 -9.144531 C 6.839844 -9.8125 7.652344 -10.148438 8.597656 -10.148438 L 8.808594 -10.148438 C 9.839844 -10.148438 10.722656 -9.78125 11.453125 -9.050781 C 12.1875 -8.316406 12.554688 -7.433594 12.554688 -6.402344 L 12.554688 -5.1875 C 12.554688 -4.855469 12.527344 -4.53125 12.472656 -4.21875 L 14.4375 -2.835938 L 14.4375 -10.773438 L -0.210938 -10.773438 L -0.210938 -13.011719 Z M 18.347656 -13.011719 "/></g></g></g></svg>